<?xml version="1.0" encoding="utf-8"?>
<!-- Generator: Adobe Illustrator 15.0.0, SVG Export Plug-In . SVG Version: 6.00 Build 0)  -->
<!DOCTYPE svg PUBLIC "-//W3C//DTD SVG 1.0//EN" "http://www.w3.org/TR/2001/REC-SVG-20010904/DTD/svg10.dtd">
<svg version="1.0" id="Layer_1" xmlns="http://www.w3.org/2000/svg" xmlns:xlink="http://www.w3.org/1999/xlink" x="0px" y="0px"
	 width="218px" height="138px" viewBox="0 0 218 138" enable-background="new 0 0 218 138" xml:space="preserve">
<g>
	
		<path fill="none" stroke="#9C0087" stroke-linecap="round" stroke-linejoin="round" stroke-miterlimit="10" stroke-dasharray="2" d="
		M211.271,17.778c-2.083-1.746-3.983-2.887-5.73-3.557c-1.744-0.67-3.343-0.859-4.761-0.695c-1.491,0.172-2.77,0.73-3.816,1.457
		c-1.573,1.09-2.65,2.533-3.349,3.699c-0.698,1.168-1.015,2.068-1.033,2.113l-0.004,0.008l-0.002,0.006
		c-0.025,0.086-0.155,0.471-0.091,1.045c0.033,0.324,0.146,0.709,0.39,1.076c0.369,0.559,1.017,1.006,1.893,1.23
		c0.877,0.232,2.008,0.285,3.548,0.109c0.666-0.08,1.405-0.199,2.234-0.373c0.181-0.037,0.346-0.062,0.505-0.082
		c0.954-0.107,1.526,0.09,1.89,0.369c0.36,0.283,0.596,0.719,0.676,1.369c0.154,1.215-0.422,3.072-1.803,4.643
		c-1.381,1.576-3.504,2.895-6.386,3.229c-0.923,0.107-1.927,0.113-3.011-0.01c-3.438-0.398-5.422-1.672-6.693-3.273
		c-1.274-1.607-1.832-3.645-2.056-5.592c-0.159-1.369-0.156-2.674-0.151-3.727c-0.001-0.779,0.297-1.947,1.02-3.262
		c2.162-3.965,8.046-9.291,19.705-11.537c0.988-0.203,1.776-0.838,2.491-1.629c1.065-1.195,1.968-2.836,2.605-4.512
		c0.316-0.836,0.565-1.684,0.72-2.492c0.151-0.811,0.216-1.584,0.135-2.301c-0.082-0.668-0.288-1.332-0.8-1.852
		c-0.253-0.254-0.58-0.453-0.937-0.559c-0.353-0.107-0.732-0.125-1.107-0.084c-0.242,0.029-0.483,0.082-0.729,0.158
		c-1.789,0.543-3.359,0.875-4.728,1.033c-1.811,0.209-3.267,0.117-4.433-0.178c-1.749-0.449-2.86-1.311-3.652-2.453
		c-0.785-1.143-1.227-2.609-1.408-4.184c-0.267-2.273-0.393-8.174-0.046-10.051c0.18-0.939,0.369-1.734,0.518-2.291
		c0.074-0.275,0.137-0.494,0.181-0.641l0.049-0.168l0.016-0.049l0.481-1.482L-48.248,0.51l14.729,126.4l0.318,0.258
		c0.06,0.047,0.607,0.486,1.59,0.867c0.976,0.385,2.391,0.711,4.127,0.51c1.984-0.229,4.359-1.148,6.942-3.324
		c2.561-2.154,5.345-5.541,8.271-10.748c0.139-0.129,0.443-0.396,0.808-0.658c0.227-0.162,0.475-0.318,0.704-0.432
		c0.222-0.111,0.43-0.176,0.542-0.188l0.076-0.002c0.026,0.037,0.118,0.201,0.156,0.566c0.038,0.33,0.042,0.805-0.021,1.43
		c-0.141,1.342-0.129,2.641,0.017,3.891c0.359,3.107,1.561,5.893,3.339,8.271c2.668,3.568,8.567,6.006,12.996,7.658
		c4.433,1.648,9.369,2.289,14.079,1.744c4.323-0.5,8.466-2.004,11.812-4.688c3.35-2.678,5.87-6.555,6.918-11.639l0.002-0.018
		l0.003-0.018c0.273-1.605,0.308-3.271,0.116-4.9c-0.343-2.908-1.385-5.703-3.154-7.758c-0.886-1.023-1.955-1.859-3.206-2.389
		c-1.249-0.531-2.668-0.746-4.191-0.568c-0.939,0.109-1.918,0.363-2.933,0.775l-0.014,0.004l-0.003,0.004
		c-1.634,0.703-3.086,1.646-4.148,2.764c-0.533,0.561-0.967,1.166-1.261,1.828c-0.29,0.66-0.437,1.385-0.35,2.121
		c0.09,0.797,0.46,1.572,1.062,2.232c0.562,0.623,1.331,1.158,2.298,1.633c-0.123,0.064-0.266,0.131-0.438,0.191
		c-0.4,0.145-0.919,0.268-1.507,0.336c-1.101,0.129-2.441,0.061-3.765-0.34c-1.324-0.398-2.635-1.121-3.746-2.312
		c-0.723-0.771-1.196-1.795-1.351-3.113c-0.298-2.473,0.622-6.004,3.347-10.186c1.596-2.453,3.189-4.207,4.781-5.385
		c1.598-1.178,3.185-1.793,4.859-1.986c2.921-0.344,6.205,0.645,9.984,2.619c3.779,1.969,8.008,4.891,12.807,8.225l0.056,0.037
		l0.058,0.031c0.024,0.012,1.178,0.604,2.717,1.166c0.771,0.279,1.638,0.553,2.519,0.736c0.878,0.184,1.771,0.287,2.633,0.191
		c0.43-0.053,0.854-0.152,1.258-0.342c0.604-0.275,1.149-0.783,1.451-1.467c0.306-0.682,0.384-1.48,0.278-2.393
		c-0.024-0.197-0.066-0.41-0.108-0.617c0.007-0.021,0.009-0.035,0.019-0.059c0.067-0.195,0.197-0.477,0.352-0.666
		c0.163-0.193,0.289-0.273,0.466-0.295c0.159-0.018,0.452,0.006,0.956,0.303c0.5,0.295,1.176,0.863,2,1.814
		c0.674,0.775,1.588,1.275,2.596,1.537c1.016,0.262,4.096,0.078,5.286-0.059c1.979-0.23,4.149-0.957,6.296-2.127
		c3.215-1.754,6.379-4.508,8.607-8.158c2.23-3.648,3.505-8.209,2.889-13.445c-0.025-0.229-0.058-0.461-0.089-0.689
		c0.028-0.107,0.085-0.271,0.175-0.416c0.068-0.109,0.154-0.205,0.247-0.271c0.091-0.064,0.19-0.115,0.372-0.135
		c0.217-0.027,0.58,0.002,1.129,0.232c0.549,0.227,1.271,0.654,2.169,1.371c1.062,0.844,2.424,1.328,3.941,1.576
		c1.517,0.246,3.204,0.248,4.947,0.047c3.37-0.395,4.957-1.539,7.874-3.314c1.455-0.889,2.747-1.938,3.745-3.156
		c0.999-1.217,1.708-2.615,1.931-4.16c0.131-0.9,0.382-1.453,0.626-1.753c0.249-0.295,0.47-0.404,0.821-0.455
		c0.52-0.07,1.37,0.152,2.301,0.689c1.404,0.791,2.969,2.201,4.17,3.662c0.604,0.729,1.119,1.471,1.49,2.139
		c0.373,0.662,0.593,1.264,0.637,1.633l0.02,0.137l0.056,0.129c0.548,1.264,0.869,2.525,1.013,3.748
		c0.316,2.682-0.25,5.184-1.195,7.008c-0.471,0.912-1.035,1.65-1.605,2.154c-0.57,0.508-1.129,0.768-1.583,0.816
		c-0.262,0.031-0.493,0.002-0.73-0.092c-0.234-0.094-0.482-0.256-0.742-0.537c-0.378-0.408-0.442-0.645-0.441-0.684l0.01-0.053
		c0.011-0.053,0.128-0.223,0.362-0.439c0.342-0.334,0.895-0.738,1.386-1.34c0.246-0.307,0.477-0.67,0.624-1.107
		c0.146-0.434,0.207-0.938,0.145-1.461c-0.076-0.617-0.3-1.264-0.688-1.955l-0.035-0.061l-0.039-0.057
		c-0.632-0.834-1.383-1.447-2.201-1.812c-0.821-0.365-1.699-0.479-2.549-0.377c-1.129,0.129-2.208,0.615-3.184,1.332
		c-1.464,1.076-2.717,2.684-3.557,4.598c-0.836,1.914-1.257,4.145-0.989,6.459c0.247,2.129,1.089,4.32,2.696,6.332
		c3.931,4.922,10.036,7.092,15.955,6.404c5.029-0.578,9.958-3.227,13.344-7.988c3.392-4.762,5.207-11.598,4.172-20.451
		c-0.082-0.711-0.184-1.434-0.303-2.168l-0.018-0.109l-0.041-0.1l-0.01-0.023c-0.106-0.27-1.057-2.826-1.355-5.424
		c-0.179-1.472-0.125-2.945,0.291-3.951c0.211-0.51,0.486-0.898,0.864-1.197c0.382-0.295,0.886-0.516,1.62-0.604
		c0.943-0.111,2.272,0.029,4.027,0.582c1.755,0.549,3.934,1.508,6.59,2.982c4.431,2.457,7.885,3.287,10.701,2.964
		c2.352-0.264,4.188-1.376,5.578-2.82c2.084-2.168,3.293-5.043,4.41-7.338c0.554-1.148,1.082-2.152,1.607-2.822
		c0.259-0.338,0.515-0.588,0.752-0.75c0.24-0.164,0.455-0.246,0.691-0.275c0.249-0.027,0.546,0.004,0.945,0.158
		c0.398,0.154,0.889,0.436,1.467,0.889c2.54,1.996,4.358,3.949,5.563,5.713c1.212,1.756,1.802,3.324,1.938,4.506
		c0.107,0.934-0.059,1.602-0.334,2.017c-0.281,0.414-0.663,0.668-1.32,0.752c-0.115,0.014-0.236,0.021-0.369,0.02
		c-0.786-0.006-1.498-0.234-2.161-0.619c-0.991-0.578-1.852-1.541-2.465-2.57c-0.622-1.02-0.991-2.115-1.069-2.809
		c-0.038-0.311-0.006-0.531,0.012-0.557c0.098-0.291,0.116-0.588,0.082-0.863c-0.081-0.666-0.431-1.225-0.928-1.633
		c-0.5-0.406-1.194-0.658-1.951-0.568c-0.544,0.061-1.092,0.299-1.589,0.697c-0.745,0.602-1.394,1.539-1.941,2.912
		c-0.551,1.377-1.009,3.197-1.319,5.621c-0.201,1.59-0.221,3.053-0.063,4.387c0.227,1.934,0.812,3.605,1.683,4.994
		c1.303,2.088,3.229,3.512,5.405,4.322c2.179,0.811,4.604,1.031,7.011,0.754c3.18-0.369,6.335-1.605,8.836-3.602
		c2.506-1.994,4.369-4.791,4.799-8.203c0.279-2.211,0.335-4.707,0.036-7.263c-0.296-2.566-0.954-5.193-2.108-7.646
		c-1.153-2.451-2.82-4.727-5.113-6.545c-1.249-0.984-2.125-1.812-2.674-2.471c-0.56-0.658-0.751-1.137-0.768-1.348
		c-0.014-0.148,0.001-0.184,0.061-0.287c0.057-0.088,0.182-0.219,0.401-0.361c0.384-0.252,1.044-0.516,1.871-0.744
		c1.248-0.35,2.879-0.646,4.651-0.982c1.771-0.338,3.698-0.719,5.566-1.254c1.301-0.377,2.724-1.111,4.147-2.123
		c2.129-1.518,4.253-3.664,5.785-6.23c1.532-2.564,2.471-5.574,2.103-8.748C216.631,24.106,214.874,20.795,211.271,17.778z"/>
	<path fill="#9C0087" d="M-31.842,124.293c0,0,8.622,6.998,19.541-12.551c0,0,4.638-4.539,4.021,1.457
		c-2.326,22.621,41.979,30.24,47.215,4.924c1.311-7.713-3.256-17.299-12.025-13.74c-4.723,2.023-7.747,6.262-2.188,8.848
		c3.281,1.525-5.664,4.838-10.769-0.629c-2.537-2.711-2.403-7.939,1.888-14.535c9.025-13.869,18.725-7.285,33.812,3.201
		c0,0,10.975,5.629,9.297-1.893c0,0,0.998-4.734,5.538,0.5c4.544,5.234,26.619-4.404,23.843-22.334c0,0,0.588-4.037,5.704,0.049
		c5.118,4.082,19.679-0.299,20.854-8.375c1.174-8.076,11.443,1.882,11.999,5.929c3.906,9.016-2.811,18.166-6.47,14.174
		c-2.794-3.047,3.771-2.738,1.263-7.227c-4.985-6.58-15.68,5.965-8.234,15.299c10.23,12.816,36.205,5.91,31.429-23.42
		c0,0-8.218-20.88,13.413-8.876c21.627,12.003,16.615-17.492,26.281-9.906c9.667,7.588,9.438,14.832,4.879,14.795
		c-4.567-0.037-7.194-6.15-6.616-7.877c0.573-1.729-4.248-4.943-5.736,6.621c-2.446,19.05,23.991,15.992,25.714,2.39
		c0.812-6.414-0.332-15.412-6.812-20.539c-9.574-7.576,0.808-6.713,9.441-9.195c6.402-1.838,18.459-14.438,5.952-24.934
		c-12.507-10.498-17.133,2.586-17.133,2.586s-1.157,3.455,6.836,1.787c7.996-1.668,4.498,12.906-8.033,11.488
		c-9.832-1.113-9.798-9.549-9.78-13.594C183.3,14.674,188.967,6,204.805,2.948c3.641-0.701,7.952-12.883,2.85-11.334
		c-21.92,6.656-14.724-20.25-14.724-20.25L-46.406-0.708L-31.842,124.293z"/>
	<g>
		<path fill="#FFFFFF" d="M189.726-25.758c-0.653,4.472-0.761,13.427,2.436,17.392c1.952,2.425,4.851,3.654,8.614,3.654
			c1.979,0,4.228-0.346,6.695-1.03c-0.083,0.611-0.285,1.488-0.735,2.593c-0.971,2.386-2.108,3.499-2.441,3.659
			c-17.065,3.301-23.462,12.91-23.484,18.195c-0.016,4.025-0.059,14.716,11.981,16.078c0.659,0.076,1.321,0.114,1.971,0.114
			c0.613,0,1.225-0.034,1.817-0.103c3.543-0.41,6.651-2.03,8.751-4.562c1.815-2.188,2.738-4.87,2.471-7.175
			c-0.346-2.95-2.512-4.856-5.518-4.856c-0.288,0-0.586,0.018-0.889,0.052c-0.257,0.031-0.526,0.075-0.805,0.131
			c-0.704,0.146-1.353,0.255-1.93,0.322c-0.469,0.055-0.896,0.083-1.269,0.083c-0.103,0-0.197-0.002-0.284-0.006
			c0.756-1.375,2.346-3.603,4.82-3.889c0.193-0.022,0.393-0.034,0.594-0.034c2.069,0,4.522,1.178,7.291,3.502
			c3.645,3.057,5.115,6.453,4.37,10.092c-1.045,5.076-6.28,9.63-9.426,10.536c-1.898,0.547-3.874,0.919-5.799,1.282
			c-4.697,0.889-8.406,1.59-9.151,4.715c-0.541,2.273,0.854,4.53,4.664,7.547c5.498,4.348,6.646,12.283,5.888,18.26
			c-0.668,5.274-5.966,8.255-10.605,8.792c-0.534,0.062-1.068,0.093-1.587,0.093c-2.744,0-5.097-0.864-6.624-2.434
			c-1.784-1.836-2.455-4.594-1.992-8.195c0.273-2.125,0.645-3.551,0.992-4.499c0.377,1.407,1.103,2.787,1.819,3.802
			c1.854,2.634,4.365,4.096,7.074,4.118c0.002,0,0.051,0,0.053,0c2.572,0,4.581-1.5,5.243-3.917
			c0.928-3.402-0.856-9.216-8.645-15.333c-1.539-1.206-2.968-1.792-4.368-1.792c-0.188,0-0.375,0.011-0.562,0.032
			c-3.181,0.369-4.691,3.538-6.159,6.616c-1.708,3.589-3.321,6.979-6.879,7.392c-0.248,0.028-0.51,0.043-0.777,0.043
			c-2.109,0-4.756-0.875-7.864-2.601c-4.887-2.713-8.695-4.032-11.643-4.032c-0.356,0-0.706,0.02-1.039,0.058
			c-2.141,0.248-3.808,1.292-4.822,3.019c-2.445,4.15-0.093,11.063,0.506,12.659c1.303,8.289,0.084,15.229-3.529,20.077
			c-2.638,3.541-6.443,5.764-10.717,6.26c-0.591,0.068-1.189,0.104-1.777,0.104c-4.392,0-8.432-1.905-11.083-5.228
			c-2.964-3.715-1.927-7.479-1.343-8.927c0.896-2.232,2.615-3.976,4.088-4.146c0.067-0.008,0.134-0.012,0.199-0.012
			c0.303,0,0.763,0.076,1.298,0.72c0.131,0.253,0.169,0.38,0.18,0.433c-0.086,0.123-0.381,0.382-0.633,0.603
			c-0.729,0.643-1.831,1.614-1.916,3.248c-0.055,1.118,0.403,2.214,1.36,3.254c1.043,1.139,2.406,1.767,3.837,1.767
			c0.189,0,0.38-0.011,0.573-0.033c2.134-0.248,4.182-1.846,5.617-4.384c1.788-3.162,2.887-8.474,0.634-13.929
			c-0.849-3.915-7.033-10.766-11.804-10.766c-0.187,0-0.371,0.011-0.553,0.032c-1.137,0.131-3.848,0.897-4.467,5.159
			c-0.554,3.807-4.984,7.037-10.533,7.68c-0.696,0.08-1.376,0.121-2.021,0.121c-1.942,0-3.517-0.369-4.321-1.014
			c-1.999-1.593-3.735-2.367-5.306-2.367c-0.183,0-0.362,0.011-0.539,0.031c-2.645,0.307-3.667,2.672-3.836,3.877l-0.032,0.223
			c-0.014,0.093-0.014,0.188,0,0.281l0.034,0.238c0.96,6.2-1.263,10.731-3.297,13.44c-3.335,4.438-8.11,6.807-11.361,7.185
			c-0.483,0.056-1.092,0.086-1.715,0.086c-1.987,0-3.015-0.288-3.167-0.394c-1.938-2.232-3.73-3.317-5.478-3.317
			c-0.16,0-0.318,0.009-0.477,0.027c-2.456,0.285-3.584,2.587-3.865,3.91l-0.065,0.32c-0.028,0.137-0.026,0.277,0.004,0.414
			l0.072,0.325c0.094,0.42,0.116,0.699,0.115,0.871c-0.09,0.009-0.185,0.014-0.284,0.014c-1.521,0-4.072-0.995-5.462-1.684
			c-9.19-6.389-16.454-11.429-23.43-11.429c-0.529,0-1.058,0.03-1.573,0.09c-4.605,0.534-8.573,3.451-12.129,8.917
			c-4.646,7.138-5.251,13.721-1.619,17.608c2.259,2.424,5.523,3.813,8.955,3.813c0.489,0,0.984-0.028,1.47-0.085
			c1.13-0.129,4.851-0.77,5.281-3.57c0.177-1.132-0.284-2.645-2.109-3.494c-1.17-0.544-1.561-1.061-1.559-1.213
			c0.005-0.51,1.116-1.981,3.642-3.064c0.95-0.387,1.852-0.583,2.678-0.583c1.37,0,2.574,0.547,3.58,1.625
			c2.042,2.184,3.036,6.259,2.422,9.875c-1.583,7.658-7.323,12.609-15.748,13.585c-1.043,0.12-2.147,0.182-3.28,0.182
			c-7.578,0-15.254-2.591-19.1-6.445c-3.195-3.206-4.651-7.172-4.209-11.472c0.231-2.291-0.134-3.832-1.151-4.85
			c-0.645-0.646-1.516-1.002-2.452-1.002c-0.147,0-0.296,0.009-0.446,0.026c-1.942,0.223-3.804,1.976-4.154,2.322l-0.152,0.148
			c-0.064,0.062-0.119,0.134-0.164,0.212l-0.116,0.2c-5.425,9.715-9.893,12.142-12.684,12.467c-0.223,0.025-0.446,0.038-0.664,0.038
			c-0.716,0-1.296-0.136-1.731-0.296L-43.664,1.48L189.726-25.758 M190.938-26.898L-44.764,0.61l14.309,122.794
			c0.509,0.262,1.418,0.609,2.651,0.609c0.246,0,0.506-0.014,0.777-0.045c3.021-0.352,7.806-2.885,13.437-12.969l0.108-0.188
			l0.151-0.148c0.314-0.311,1.973-1.861,3.573-2.045c0.112-0.013,0.224-0.02,0.333-0.02c0.676,0,1.287,0.247,1.75,0.711
			c0.793,0.793,1.065,2.08,0.866,4.049c-0.473,4.604,1.081,8.848,4.494,12.271c4.321,4.331,12.562,6.737,19.803,6.737
			c1.164,0,2.302-0.062,3.394-0.188c8.876-1.027,14.93-6.266,16.605-14.369c0.675-3.973-0.392-8.318-2.669-10.754
			c-1.203-1.29-2.656-1.939-4.304-1.939c-0.955,0-1.976,0.219-3.052,0.656c-2.77,1.188-4.248,2.9-4.26,3.973
			c-0.011,0.98,1.33,1.75,2.133,2.123c1.665,0.775,1.605,2.066,1.547,2.441c-0.323,2.105-3.459,2.629-4.413,2.738
			c-0.454,0.053-0.907,0.079-1.357,0.079c-3.139,0-6.142-1.26-8.229-3.499c-3.3-3.531-2.656-9.66,1.725-16.391
			c3.387-5.205,7.119-7.975,11.412-8.473c0.483-0.056,0.97-0.083,1.459-0.083c6.654,0,13.913,5.028,22.923,11.292
			c1.136,0.569,4.054,1.82,5.97,1.82c0.147,0,0.288-0.008,0.422-0.023c0.25-0.027,0.578-0.102,0.707-0.283
			c0.072-0.105,0.287-0.541,0.008-1.787l-0.072-0.324l0.065-0.32c0.225-1.057,1.109-2.902,3.008-3.123
			c0.12-0.014,0.241-0.021,0.362-0.021c1.443,0,2.992,0.976,4.729,2.976c0.465,0.534,2.277,0.735,3.917,0.735
			c0.674,0,1.318-0.034,1.829-0.093c3.462-0.402,8.527-2.898,12.041-7.574c2.149-2.863,4.497-7.646,3.484-14.188l-0.032-0.227
			l0.032-0.223c0.134-0.947,0.932-2.797,2.969-3.033c0.139-0.017,0.281-0.024,0.424-0.024c1.34,0,2.877,0.708,4.688,2.151
			c1,0.801,2.774,1.229,4.939,1.229c0.677,0,1.393-0.042,2.135-0.128c5.949-0.689,10.764-4.145,11.4-8.523
			c0.502-3.451,2.469-4.186,3.6-4.316c0.144-0.017,0.29-0.025,0.438-0.025c4.197,0,10.148,6.468,10.852,10.067
			c2.164,5.156,1.144,10.16-0.545,13.146c-1.278,2.26-3.052,3.676-4.868,3.887c-0.153,0.018-0.307,0.026-0.459,0.026
			c-1.152,0-2.241-0.5-3.105-1.444c-0.785-0.854-1.143-1.684-1.101-2.535c0.063-1.221,0.912-1.963,1.592-2.562
			c0.962-0.842,1.268-1.111,0.618-2.318c-0.618-0.78-1.319-1.163-2.13-1.163c-0.103,0-0.207,0.006-0.313,0.019
			c-1.841,0.213-3.854,2.17-4.895,4.762c-0.648,1.607-1.798,5.797,1.488,9.916c2.858,3.581,7.19,5.601,11.858,5.601
			c0.625,0,1.257-0.037,1.892-0.11c4.545-0.527,8.595-2.889,11.398-6.652c3.792-5.088,5.069-12.32,3.697-20.926
			c-0.508-1.33-2.874-8.066-0.615-11.9c0.851-1.447,2.265-2.326,4.082-2.537c0.296-0.034,0.604-0.051,0.925-0.051
			c2.771,0,6.437,1.284,11.161,3.907c3.263,1.811,6.068,2.726,8.347,2.726c0.306,0,0.603-0.017,0.89-0.05
			c4.104-0.477,5.913-4.277,7.661-7.951c1.41-2.957,2.738-5.75,5.378-6.057c0.148-0.017,0.297-0.026,0.447-0.026
			c1.17,0,2.404,0.521,3.756,1.581c7.417,5.824,9.105,11.336,8.3,14.291c-0.536,1.957-2.131,3.185-4.286,3.185
			c-0.016,0-0.03,0-0.046,0c-2.383-0.02-4.606-1.334-6.27-3.697c-1.188-1.684-2.215-4.199-1.813-5.92
			c-0.021-0.013-0.05-0.02-0.083-0.02c-0.464,0-1.974,1.365-2.711,7.08c-0.503,3.917,0.259,6.949,2.266,9.013
			c1.726,1.773,4.338,2.734,7.335,2.734c0.555,0,1.123-0.033,1.701-0.1c5.011-0.58,10.74-3.85,11.476-9.652
			c0.793-6.246-0.435-14.56-6.257-19.164c-3.461-2.74-4.753-4.697-4.314-6.539c0.597-2.502,3.862-3.117,8.385-3.973
			c1.938-0.365,3.943-0.744,5.875-1.301c3.461-0.996,8.987-5.771,10.123-11.289c0.823-4.023-0.757-7.742-4.704-11.053
			c-2.955-2.479-5.616-3.734-7.929-3.734c-0.24,0-0.476,0.014-0.708,0.041c-3.938,0.455-5.845,4.84-6.128,5.545
			c0.05,0.048,0.443,0.327,1.706,0.327c0.379,0,0.835-0.025,1.384-0.089c0.605-0.07,1.285-0.184,2.017-0.336
			c0.249-0.051,0.489-0.09,0.72-0.117c0.264-0.031,0.521-0.045,0.771-0.045c2.498,0,4.242,1.5,4.532,3.979
			c0.442,3.807-2.988,9.785-10.351,10.637c-0.555,0.064-1.124,0.096-1.703,0.096c-0.61,0-1.23-0.036-1.857-0.108
			c-11.157-1.262-11.119-10.951-11.103-15.088c0.021-4.975,6.209-14.051,22.718-17.232c0.617-0.119,2.037-1.553,3.135-4.252
			c0.898-2.205,0.951-3.787,0.783-4.25c-0.09,0.012-0.227,0.033-0.354,0.072c-2.745,0.834-5.184,1.249-7.308,1.249
			c-3.459,0-6.083-1.1-7.842-3.284C189.607-13.115,190.15-23.392,190.938-26.898L190.938-26.898z"/>
	</g>
</g>
</svg>
